<svg width="70" height="70" fill="none" xmlns="http://www.w3.org/2000/svg"><path d="M69.9433 9.8964a1.1682 1.1682 0 0 0-.9415-.7934l-4.179-.6079-1.8702-3.787c-.392-.798-1.6999-.798-2.0918 0l-1.8702 3.787-4.1792.608a1.1694 1.1694 0 0 0-.9427.7934c-.1364.4223-.0234.8866.2952 1.1959l3.0252 2.9483-.7139 4.1627c-.0747.4375.105.8797.4632 1.1411a1.1612 1.1612 0 0 0 1.2296.0886l3.7381-1.9659 3.7381 1.9659c.1704.0898.3582.1341.5437.1341.2415 0 .4831-.0747.6861-.2229a1.1647 1.1647 0 0 0 .4632-1.141l-.7139-4.1628 3.0252-2.9482a1.1704 1.1704 0 0 0 .2948-1.196Zm-5.3877 2.9027a1.1668 1.1668 0 0 0-.3348 1.0325l.4177 2.4372-2.1886-1.1504a1.1647 1.1647 0 0 0-.5438-.1341c-.1866 0-.3721.0443-.5437.1341l-2.1888 1.1504.4177-2.4372a1.1677 1.1677 0 0 0-.3348-1.0325l-1.7722-1.7267 2.4477-.3558a1.1665 1.1665 0 0 0 .8786-.6383l1.0943-2.2166 1.0943 2.2166c.1704.3442.4982.5834.8786.6383l2.4477.3558-1.7699 1.7267ZM57.167 44.8923h-2.3334v2.3334h2.3334v-2.3334ZM57.167 49.5591h-2.3334v2.3334h2.3334v-2.3334ZM59.5004 47.2257H57.167v2.3334h2.3334v-2.3334ZM54.8337 47.2257h-2.3334v2.3334h2.3334v-2.3334ZM49.0002 57.7259h-2.3334v2.3334h2.3334v-2.3334ZM49.0002 62.3926h-2.3334v2.3334h2.3334v-2.3334ZM51.3337 60.0593h-2.3335v2.3334h2.3335v-2.3334ZM46.6668 60.0593h-2.3334v2.3334h2.3334v-2.3334ZM35 53.0592h-2.3334v2.3334H35v-2.3334ZM35 57.7259h-2.3334v2.3334H35v-2.3334ZM37.3334 55.3925H35v2.3334h2.3334v-2.3334ZM32.6666 55.3925h-2.3334v2.3334h2.3334v-2.3334ZM12.833 13.3918h-2.3334v2.3334h2.3334v-2.3334ZM12.833 18.0587h-2.3334v2.3334h2.3334v-2.3334Z" fill="#2196F3"/><path d="M15.1663 15.7252h-2.3334v2.3334h2.3334v-2.3334ZM10.4996 15.7252H8.1662v2.3334h2.3334v-2.3334Z" fill="#2196F3"/><path d="M54.0635 30.9738c-.6287-.8482-1.5516-1.3941-2.5993-1.5412-1.0523-.1493-2.0907.1271-2.9307.77l-2.7383 2.0988-.0012.0012-4.1511 3.0999-2.9704-1.1831c5.2967-2.3765 8.9987-7.6744 8.9987-13.8252 0-8.3628-6.831-15.1668-15.2276-15.1668s-15.2274 6.804-15.2274 15.1668c0 3.0311.9064 5.8497 2.45 8.2216l-6.0458-.0525h-.0105c-.0187 0-.0338.0093-.0513.0105a1.14 1.14 0 0 0-.3395.0677c-.028.0105-.0571.0164-.0839.0291-.014.0059-.028.007-.042.014l-7.0724 3.4918c-.0013 0-.0023 0-.0023.0011l-4.1419 1.9918a.9055.9055 0 0 0-.1377.0769C.088 35.3452-.4743 37.5036.43 39.2676c.4819.938 1.302 1.6287 2.3101 1.9448a3.9525 3.9525 0 0 0 1.1795.1809c.6336 0 1.2613-.1552 1.8363-.462l3.0358-1.6146 4.9525-2.5574 2.9681-.0175L4.8085 48.5884c-.0011.0012-.0024.0012-.0036.0023l-2.9284 2.9167c-.6918.6884-1.0722 1.6018-1.0722 2.5761 0 .973.3804 1.8888 1.0722 2.5784.7105.707 1.645 1.0616 2.5795 1.0616.9357 0 1.869-.3546 2.5818-1.0616l2.8747-2.8631 3.8081-2.8432 1.9706 1.9623-3.8536 3.8372c-.0011.0013-.0024.0013-.0036.0024l-2.9284 2.9166c-.6918.6884-1.0722 1.6018-1.0722 2.5761 0 .9731.3804 1.8888 1.0722 2.5784.7105.707 1.6462 1.0617 2.5807 1.0617.9345 0 1.8702-.3547 2.5819-1.0617l2.9295-2.9166 4.6865-4.6667c.0012-.0013.0012-.0024.0023-.0036l2.2086-2.1875-.0082-.0082c.014-.014.0338-.0188.0479-.0338l11.3005-12.3773 7.5928 1.0803a1.109 1.109 0 0 0 .1645.0117c.1412 0 .2777-.0338.4095-.084.0385-.0139.0723-.0327.1085-.0513.042-.021.0863-.0326.1261-.0594l7.0292-4.6667c.0257-.0175.0397-.0456.0641-.0642.028-.0221.0631-.0314.0886-.056l2.7813-2.6052c1.4472-1.356 1.6467-3.5773.4636-5.1663ZM4.6603 38.8722c-.3792.203-.8097.2437-1.2215.1132-.4084-.1272-.7397-.4061-.9334-.7829-.3523-.6861-.1482-1.5214.469-1.9729l2.8736-1.3825.6918 2.0218.2905.8493-2.17 1.154Zm7.6499-3.9982-3.3868 1.7501-.5588-1.6334-.4013-1.1738 4.4335-2.1887-.0866 3.2458Zm33.03-14.4821c0 2.009-.4795 3.9038-1.3102 5.5988l-9.1468-4.1545c-.0957-1.2541-.7466-2.352-1.7243-3.0357l3.2026-10.632c5.2011 1.6545 8.9787 6.5067 8.9787 12.2234Zm-25.7883 0c0-7.076 5.7844-12.8336 12.8942-12.8336.553 0 1.0943.0466 1.6298.1143l-3.1325 10.3987c-.042-.0012-.0817-.0128-.1249-.0128-2.2587 0-4.0963 1.8316-4.0963 4.0834 0 2.2517 1.8376 4.0835 4.0963 4.0835 1.519 0 2.8315-.8388 3.5397-2.0663l8.4491 3.8384c-2.3509 3.164-6.1135 5.228-10.3614 5.228-7.1096 0-12.894-5.7576-12.894-12.8336Zm13.0295 1.75c0 .9649-.7911 1.75-1.7629 1.75-.9718 0-1.7628-.7851-1.7628-1.75 0-.9648.791-1.75 1.7628-1.75.9718 0 1.7629.7852 1.7629 1.75ZM5.3919 55.0074c-.5168.5122-1.3534.5111-1.869.0013-.2486-.2486-.385-.5763-.385-.9252 0-.3477.1364-.6756.385-.9217l2.1045-2.0966 1.862 1.8539-2.0975 2.0883Zm7.0303 8.1669c-.5168.5122-1.3545.5134-1.8702.0012-.2486-.2485-.385-.5762-.385-.9252 0-.3476.1364-.6755.385-.9216l2.1059-2.0977.8809.8763.9823.9776-2.0989 2.0894Zm7.6162-7.5881c-.0013.0011-.0024.0011-.0036.0023l-3.8606 3.85-.8809-.8762-.9823-.9777 3.857-3.8395v-.0011c.0013-.0012.0023-.0012.0036-.0023.0875-.0875.1423-.1925.196-.2963.0152-.0304.0443-.0561.0572-.0875.0362-.0898.042-.1866.056-.2812.007-.0538.0304-.1038.0304-.1588 0-.0782-.028-.1539-.0443-.231-.014-.07-.014-.1413-.0409-.2088-.0443-.1097-.1202-.2065-.1995-.3011-.0221-.0257-.0303-.0584-.0548-.0828h-.0012c-.0012-.0011-.0012-.0036-.0023-.0047l-3.5153-3.5c-.0373-.0374-.0851-.0525-.1271-.084-.0618-.0478-.1213-.0921-.1902-.126-.0664-.0327-.1341-.0525-.2041-.0713-.0747-.021-.147-.0373-.2252-.0432-.0712-.0046-.1377.0024-.2088.0106-.0782.0093-.1516.0198-.2275.0443-.0735.0233-.1388.0594-.2064.098-.0432.0245-.0922.0327-.1331.063l-3.8791 2.8958-1.9706-1.9624 5.2478-5.2197 9.5388 9.3814-2.029 2.0102Zm14.9161-15.349c-.0338-.0047-.0654.0082-.0991.0059a1.1477 1.1477 0 0 0-.252.0151c-.0665.0117-.1295.0245-.1925.0467-.0747.0257-.1423.0607-.2113.1026a1.1257 1.1257 0 0 0-.1819.1342c-.0281.0244-.0618.0362-.0875.0641L23.6527 51.862l-9.4676-9.3114 6.1974-6.1647c.4562-.455.4586-1.1936.0035-1.6509-.2298-.2298-.5319-.343-.8341-.3418v-.0011l-4.8534.0291.0607-3.5163 6.7901.0584c2.7673 2.8304 6.6267 4.5956 10.8968 4.5956.9566 0 1.89-.0991 2.7988-.2684.0875.07.1737.1412.2835.1855l5.2712 2.1001.3336 1.6589.3896 1.9367-6.5683-.9345Zm8.8399.3897-.6848-3.408 3.164-2.3625.8284 1.099 1.2425 1.6496-4.5501 3.0219Zm8.2111-6.1928-1.8329 1.7173-2.037-2.7043 1.8188-1.3942c.3395-.2612.7677-.3675 1.1877-.3126.4223.0594.7957.28 1.05.6218.4738.6382.3932 1.5284-.1866 2.072Z" fill="#212121"/><path d="m29.7545 40.5651-4.6877-4.6667c-.4538-.4538-1.1913-.4538-1.6463 0l-4.6865 4.6667a1.1722 1.1722 0 0 0-.343.8271c0 .3104.1225.6079.343.8272l4.6865 4.6667c.2275.2263.5263.3395.8238.3395s.5961-.1132.8225-.3395l4.6877-4.6667a1.1713 1.1713 0 0 0 .3442-.8272c0-.3103-.1238-.6078-.3442-.8271Zm-5.5102 3.8477-3.0334-3.0206 3.0334-3.0205 3.0345 3.0205-3.0345 3.0206ZM37.5468 11.0923l-.5635 2.2657c.1552.0386 3.8011.9882 3.8011 4.7006h2.3334c-.0001-4.4125-3.6436-6.4868-5.571-6.9663ZM43.1178 20.3919h-2.3334v2.3334h2.3334v-2.3334Z" fill="#212121"/></svg>