<!-- Generated by IcoMoon.io -->
<svg version="1.1" xmlns="http://www.w3.org/2000/svg" width="1536" height="1536" viewBox="0 0 1536 1536">
<title></title>
<g id="icomoon-ignore">
</g>
<path d="M0 1407.991c0 70.719 57.279 128.001 128.001 128.001h1279.998c70.719 0 128.001-57.279 128.001-128.001l-0.003-1279.995c0-70.719-57.279-128.001-128.001-128.001h-1279.995c-70.722 0-128.001 57.279-128.001 128.001v1279.995zM1247.997 1135.995c0 44.16-35.841 80.001-80.001 80.001s-79.998-35.841-79.998-80.001c0-362.241-293.793-656-656-656-44.16 0-80.001-35.841-80.001-80.001s35.841-80.001 80.001-80.001c237.441 0 432.32 81.921 585.278 234.879 156.768 156.804 230.721 351.363 230.721 581.123zM959.999 1135.995c0 44.16-35.841 80.001-80.001 80.001s-79.998-35.841-79.998-80.001c0-203.202-164.802-368.001-368.001-368.001-44.16 0-80.001-35.841-80.001-80.001s35.841-80.001 80.001-80.001c291.519 0.003 527.999 236.514 527.999 528.002zM351.999 1071.993c0-79.68 64.32-144 144-144s144 64.32 144 144-64.32 144-144 144-144-64.32-144-144z"></path>
</svg>
