<!-- Generated by IcoMoon.io -->
<svg version="1.1" xmlns="http://www.w3.org/2000/svg" width="1536" height="1536" viewBox="0 0 1536 1536">
<title></title>
<g id="icomoon-ignore">
</g>
<path d="M-16.002 1421.327c0 72.192 58.473 130.668 130.668 130.668h1306.668c72.192 0 130.668-58.473 130.668-130.668l-0.003-1306.665c0-72.192-58.473-130.668-130.668-130.668h-1306.665c-72.195 0-130.668 58.473-130.668 130.668v1306.665zM996.666 800.661h-326.667v97.999c0 35.933 29.4 65.332 65.332 65.332h261.333c72.192 0 130.668 58.473 130.668 130.668s-58.473 130.668-130.668 130.668l-326.664-0.003c-144.387 0-261.333-116.947-261.333-261.333v-555.333c0-72.192 58.473-130.668 130.668-130.668s130.668 58.473 130.668 130.668v130.668h326.667c72.192 0 130.668 58.473 130.668 130.668s-58.479 130.665-130.671 130.665z"></path>
</svg>
