<!-- Generated by IcoMoon.io -->
<svg version="1.1" xmlns="http://www.w3.org/2000/svg" width="43" height="32" viewBox="0 0 43 32">
<title>envelope</title>
<path fill="#757575" d="M38.661 0h-34.667c-2.205 0-4 1.794-4 4v24c0 2.206 1.794 4 4 4h34.667c2.206 0 4-1.794 4-4v-24c0-2.205-1.794-4-4-4zM38.661 2.667c0.184 0 0.36 0.038 0.52 0.107l-0.009-0.003-17.844 15.466-17.845-15.466c0.151-0.065 0.327-0.103 0.511-0.103h34.667zM38.661 29.333h-34.667c-0.736-0-1.333-0.597-1.333-1.333v-22.413l17.793 15.421c0.232 0.202 0.538 0.325 0.872 0.325 0 0 0.001 0 0.001 0h-0c0 0 0.001 0 0.002 0 0.334 0 0.64-0.123 0.874-0.327l-0.002 0.001 17.793-15.421v22.413c0 0.736-0.598 1.333-1.333 1.333z"></path>
</svg>
