<!-- Generated by IcoMoon.io -->
<svg version="1.1" xmlns="http://www.w3.org/2000/svg" width="34" height="32" viewBox="0 0 34 32">
<title>group3</title>
<path fill="#afb1b8" d="M5.709 31.094c0.013 0 0.025 0.003 0.036 0.007l-0.001-0c0.011 0.004 0.021 0.011 0.029 0.018l-0-0 0.166 0.159c-0.129 0.129-0.288 0.231-0.467 0.302-0.184 0.069-0.398 0.109-0.62 0.109-0.015 0-0.030-0-0.045-0.001l0.002 0c-0.010 0-0.022 0-0.034 0-0.211 0-0.414-0.037-0.602-0.105l0.012 0.004c-0.178-0.065-0.338-0.162-0.47-0.285-0.134-0.128-0.237-0.278-0.303-0.44s-0.106-0.35-0.106-0.548c0-0.006 0-0.012 0-0.018v0.001c-0-0.006-0-0.012-0-0.019 0-0.198 0.042-0.387 0.118-0.557l-0.003 0.009c0.073-0.164 0.182-0.314 0.322-0.44 0.142-0.124 0.312-0.222 0.498-0.287 0.185-0.064 0.399-0.101 0.621-0.101 0.007 0 0.015 0 0.022 0h-0.001c0.011-0 0.025-0 0.038-0 0.2 0 0.392 0.034 0.57 0.096l-0.012-0.004c0.165 0.062 0.316 0.148 0.447 0.255l-0.139 0.17c-0.010 0.012-0.022 0.022-0.035 0.030l-0.001 0c-0.014 0.008-0.030 0.013-0.048 0.013-0.003 0-0.006-0-0.008-0l0 0c-0.022-0.001-0.043-0.008-0.061-0.018l0.001 0-0.075-0.045-0.104-0.058c-0.037-0.019-0.083-0.037-0.131-0.053l-0.008-0.002c-0.052-0.017-0.115-0.033-0.18-0.044l-0.009-0.001c-0.069-0.012-0.148-0.018-0.228-0.018-0.007 0-0.013 0-0.020 0h0.001c-0.005-0-0.011-0-0.017-0-0.159 0-0.312 0.028-0.454 0.079l0.009-0.003c-0.136 0.048-0.26 0.121-0.361 0.213-0.104 0.098-0.183 0.214-0.235 0.339-0.054 0.128-0.085 0.277-0.085 0.433 0 0.005 0 0.010 0 0.015v-0.001c-0 0.005-0 0.011-0 0.017 0 0.158 0.031 0.308 0.088 0.445l-0.003-0.008c0.051 0.125 0.129 0.239 0.231 0.338 0.095 0.092 0.213 0.163 0.345 0.209 0.136 0.049 0.281 0.073 0.428 0.072 0.007 0 0.016 0 0.025 0 0.081 0 0.16-0.005 0.238-0.016l-0.009 0.001c0.143-0.015 0.273-0.058 0.389-0.124l-0.005 0.003c0.062-0.036 0.116-0.073 0.166-0.114l-0.002 0.002c0.021-0.017 0.049-0.028 0.079-0.029h0zM10.508 30.296c0 0.005 0 0.011 0 0.017 0 0.197-0.041 0.384-0.116 0.554l0.003-0.009c-0.068 0.163-0.174 0.311-0.313 0.436s-0.306 0.222-0.491 0.286c-0.189 0.064-0.406 0.101-0.632 0.101s-0.443-0.037-0.646-0.105l0.014 0.004c-0.184-0.065-0.35-0.163-0.488-0.287-0.138-0.127-0.246-0.276-0.316-0.44-0.15-0.364-0.15-0.761 0-1.125 0.071-0.164 0.178-0.314 0.316-0.442 0.139-0.12 0.305-0.214 0.488-0.276 0.188-0.065 0.406-0.103 0.632-0.103s0.443 0.038 0.646 0.107l-0.014-0.004c0.185 0.065 0.351 0.163 0.49 0.287 0.137 0.125 0.243 0.273 0.314 0.435 0.077 0.181 0.115 0.372 0.112 0.565zM10.072 30.296c0-0.007 0-0.015 0-0.024 0-0.154-0.029-0.301-0.082-0.435l0.003 0.008c-0.047-0.125-0.122-0.239-0.222-0.338-0.097-0.093-0.217-0.166-0.351-0.213-0.137-0.047-0.295-0.074-0.459-0.074s-0.322 0.027-0.469 0.077l0.010-0.003c-0.134 0.047-0.254 0.12-0.351 0.213-0.101 0.097-0.178 0.212-0.224 0.338-0.050 0.134-0.079 0.289-0.079 0.451s0.029 0.317 0.082 0.46l-0.003-0.009c0.047 0.125 0.123 0.24 0.224 0.338 0.098 0.092 0.217 0.164 0.351 0.211 0.137 0.046 0.295 0.072 0.459 0.072s0.322-0.026 0.47-0.075l-0.011 0.003c0.134-0.047 0.254-0.119 0.351-0.211 0.1-0.098 0.175-0.213 0.222-0.338 0.050-0.126 0.079-0.273 0.079-0.426 0-0.009-0-0.018-0-0.027l0 0.001zM13.782 30.769l0.044 0.101c0.017-0.036 0.031-0.069 0.048-0.101 0.018-0.039 0.037-0.072 0.056-0.103l-0.002 0.004 1.062-1.677c0.021-0.029 0.039-0.047 0.060-0.052s0.047-0.009 0.072-0.009c0.005 0 0.010 0 0.016 0l-0.001-0h0.314v2.727h-0.372v-2.090c-0.001-0.014-0.002-0.030-0.002-0.047s0.001-0.033 0.002-0.049l-0 0.002-1.068 1.7c-0.015 0.026-0.036 0.048-0.062 0.062l-0.001 0c-0.026 0.014-0.057 0.023-0.089 0.023-0.001 0-0.001 0-0.002 0h-0.060c-0.001 0-0.002 0-0.003 0-0.032 0-0.063-0.008-0.089-0.023l0.001 0c-0.027-0.014-0.048-0.036-0.062-0.062l-0-0.001-1.099-1.711v2.189h-0.359v-2.722h0.314c0.004-0 0.010-0 0.015-0 0.026 0 0.051 0.003 0.074 0.010l-0.002-0c0.025 0.011 0.045 0.029 0.058 0.052l0 0.001 1.084 1.678c0.020 0.028 0.038 0.060 0.053 0.094l0.001 0.004zM17.776 30.633v1.021h-0.415v-2.723h0.926c0.010-0 0.022-0 0.034-0 0.172 0 0.338 0.022 0.497 0.063l-0.014-0.003c0.134 0.033 0.259 0.091 0.366 0.17 0.092 0.074 0.163 0.165 0.208 0.267 0.049 0.111 0.073 0.229 0.071 0.348 0 0.003 0 0.007 0 0.010 0 0.123-0.028 0.239-0.079 0.343l0.002-0.005c-0.050 0.104-0.127 0.198-0.224 0.273-0.104 0.080-0.227 0.142-0.36 0.179l-0.007 0.002c-0.14 0.040-0.301 0.063-0.467 0.063-0.012 0-0.023-0-0.035-0l0.002 0-0.503-0.007zM17.776 30.341h0.503c0.004 0 0.009 0 0.014 0 0.11 0 0.215-0.015 0.316-0.044l-0.008 0.002c0.089-0.026 0.167-0.066 0.234-0.119l-0.002 0.001c0.060-0.048 0.108-0.108 0.14-0.177l0.001-0.003c0.032-0.065 0.050-0.142 0.050-0.223 0-0.002 0-0.004-0-0.007v0c0.001-0.009 0.001-0.018 0.001-0.028 0-0.070-0.016-0.137-0.044-0.196l0.001 0.003c-0.035-0.074-0.084-0.136-0.144-0.185l-0.001-0.001c-0.159-0.108-0.358-0.16-0.559-0.146h-0.503v1.122zM23.36 31.658h-0.328c-0.002 0-0.004 0-0.006 0-0.032 0-0.061-0.009-0.086-0.026l0.001 0c-0.023-0.016-0.041-0.038-0.054-0.062l-0-0.001-0.282-0.659h-1.419l-0.293 0.659c-0.012 0.025-0.030 0.046-0.051 0.061l-0 0c-0.025 0.017-0.055 0.027-0.088 0.027-0.002 0-0.004-0-0.006-0h-0.328l1.246-2.727h0.432l1.263 2.727zM21.304 30.646h1.172l-0.494-1.11c-0.033-0.071-0.065-0.156-0.090-0.244l-0.003-0.013-0.048 0.143c-0.016 0.048-0.032 0.086-0.049 0.123l0.003-0.008-0.49 1.108zM25.155 28.944c0.025 0.012 0.046 0.028 0.062 0.048l0 0 1.818 2.056v-2.117h0.372v2.727h-0.208c-0.002 0-0.004 0-0.006 0-0.029 0-0.056-0.006-0.081-0.017l0.001 0c-0.026-0.013-0.048-0.030-0.066-0.050l-0-0-1.816-2.054c0.001 0.014 0.002 0.030 0.002 0.047s-0.001 0.033-0.002 0.049l0-0.002v2.027h-0.372v-2.727h0.22c0.002-0 0.003-0 0.005-0 0.025 0 0.049 0.005 0.071 0.013l-0.001-0zM30.469 30.574v1.083h-0.415v-1.083l-1.149-1.642h0.372c0.003-0 0.006-0 0.009-0 0.030 0 0.058 0.009 0.081 0.024l-0.001-0c0.022 0.017 0.041 0.037 0.055 0.060l0.001 0.001 0.719 1.059c0.029 0.045 0.054 0.087 0.075 0.126s0.037 0.078 0.052 0.116l0.054-0.117c0.023-0.048 0.046-0.089 0.073-0.128l-0.002 0.003 0.708-1.067c0.016-0.022 0.033-0.041 0.053-0.057l0.001-0c0.023-0.017 0.051-0.027 0.083-0.027 0.002 0 0.005 0 0.007 0h0.376l-1.151 1.65zM13.576 24.355c0.181 0.020 0.364 0.036 0.548 0.051 2.803-1.089 5.174-2.873 6.817-5.126s2.485-4.878 2.421-7.546l-3.089-2.684c0.628 2.84 0.334 5.776-0.849 8.479s-3.208 5.067-5.849 6.827z"></path>
<path fill="#afb1b8" d="M12.473 24.23l0.083 0.014c2.822-1.754 4.974-4.203 6.176-7.030s1.402-5.904 0.571-8.83l-4.4-3.823c1.78 3.142 2.496 6.659 2.066 10.141s-1.989 6.786-4.496 9.528zM27.394 14.884c-0.747 2.931-2.563 5.574-5.177 7.537-0.763 0.576-1.587 1.090-2.46 1.534 2.128-0.544 4.085-1.504 5.718-2.809s2.9-2.917 3.703-4.714l-1.784-1.549z"></path>
<path fill="#afb1b8" d="M26.694 14.453l-2.541-2.207c-0.049 2.517-0.872 4.976-2.385 7.123s-3.66 3.902-6.217 5.084h0.012c0.601-0 1.194-0.032 1.778-0.095l-0.073 0.006c2.39-0.848 4.502-2.196 6.147-3.926s2.771-3.785 3.278-5.985zM12.841 2.949l-3.031-2.637c-2.709 0.91-5.040 2.509-6.686 4.588s-2.531 4.542-2.54 7.066c0.010 2.789 1.090 5.495 3.070 7.69s4.745 3.754 7.859 4.43c2.78-2.942 4.407-6.579 4.646-10.38s-0.924-7.569-3.319-10.757zM33.697 14.047c-0.011-3.309-1.529-6.479-4.221-8.818s-6.342-3.658-10.15-3.668c-1.76-0.002-3.504 0.281-5.146 0.832l18.557 16.123c0.635-1.425 0.961-2.94 0.96-4.469z"></path>
</svg>
